<svg width="1920" height="240" viewBox="0 0 1920 240" xmlns="http://www.w3.org/2000/svg"><path d="M 0,240 C 0,240 0,48 0,48 C 28.72980362419426,47.345881355202124 57.45960724838852,46.691762710404255 95,48 C 132.54039275161148,49.308237289595745 178.89137463064012,52.5788305135851 208,55 C 237.10862536935988,57.4211694864149 248.9748942290509,58.99291523525533 275,57 C 301.0251057709491,55.00708476474467 341.2090484531564,49.44950854539356 375,51 C 408.7909515468436,52.55049145460644 436.1889119583233,61.20905058317042 469,61 C 501.8110880416767,60.79094941682958 540.0353037135507,51.71428912192473 578,53 C 615.9646962864493,54.28571087807527 653.6698731874741,65.93379292913065 684,62 C 714.3301268125259,58.06620707086935 737.2852035365534,38.55053916155271 763,38 C 788.7147964634466,37.44946083844729 817.1893126663124,55.86405042465849 851,63 C 884.8106873336876,70.13594957534151 923.9575457981971,65.99325913981338 964,60 C 1004.0424542018029,54.00674086018663 1044.980504140899,46.16291301608804 1073,49 C 1101.019495859101,51.83708698391196 1116.1204376382066,65.35508879583446 1143,64 C 1169.8795623617934,62.64491120416553 1208.5377453062742,46.41673180057409 1244,42 C 1279.4622546937258,37.58326819942591 1311.7285811366962,44.97798400186918 1347,47 C 1382.2714188633038,49.02201599813082 1420.54793014694,45.67133219194918 1455,41 C 1489.45206985306,36.32866780805082 1520.0796982755435,30.33668723033406 1551,30 C 1581.9203017244565,29.66331276966594 1613.1332767508852,34.98191888671458 1643,40 C 1672.8667232491148,45.01808111328542 1701.3871947209157,49.73563722280761 1729,49 C 1756.6128052790843,48.26436277719239 1783.3179443654526,42.07553222205496 1815,41 C 1846.6820556345474,39.92446777794504 1883.3410278172737,43.96223388897252 1920,48 C 1920,48 1920,240 1920,240 Z" fill="#99f3ff" opacity="0.12"/><path d="M 0,240 C 0,240 0,96 0,96 C 27.06700170697237,98.12704168390565 54.13400341394474,100.25408336781128 85,102 C 115.86599658605526,103.74591663218872 150.53098805119342,105.11070821266055 184,106 C 217.46901194880658,106.88929178733945 249.74204438128163,107.30308378154646 285,104 C 320.25795561871837,100.69691621845354 358.5008344236801,93.67695666115362 387,96 C 415.4991655763199,98.32304333884638 434.2546179239981,109.98908957383905 463,108 C 491.7453820760019,106.01091042616095 530.4806938803276,90.36668504349016 572,85 C 613.5193061196724,79.63331495650984 657.8226065546917,84.5441702522003 689,91 C 720.1773934453083,97.4558297477997 738.2288799009054,105.45663394770864 765,103 C 791.7711200990946,100.54336605229136 827.2618738416867,87.6292939569651 859,87 C 890.7381261583133,86.3707060430349 918.7236247323482,98.02619022443099 955,103 C 991.2763752676518,107.97380977556901 1035.8436272289207,106.26594514531094 1068,100 C 1100.1563727710793,93.73405485468906 1119.9018663519694,82.91002919432525 1146,79 C 1172.0981336480306,75.08997080567475 1204.5489073632018,78.09393807738812 1234,83 C 1263.4510926367982,87.90606192261188 1289.9025041952232,94.7142184961223 1328,100 C 1366.0974958047768,105.2857815038777 1415.8410758559062,109.04918793812266 1449,105 C 1482.1589241440938,100.95081206187734 1498.733192381152,89.08902975138703 1527,89 C 1555.266807618848,88.91097024861297 1595.2261546194852,100.59469305632925 1630,104 C 1664.7738453805148,107.40530694367075 1694.3621891409077,102.53219802329596 1729,102 C 1763.6378108590923,101.46780197670404 1803.3250888168836,105.27651485048686 1836,105 C 1868.6749111831164,104.72348514951314 1894.3374555915582,100.36174257475656 1920,96 C 1920,96 1920,240 1920,240 Z" fill="#99f3ff" opacity="0.24"/><path d="M 0,240 C 0,240 0,144 0,144 C 38.15298724726837,149.84353627756258 76.30597449453674,155.68707255512513 104,159 C 131.69402550546326,162.31292744487487 148.92908926912136,163.095246057062 181,155 C 213.07091073087864,146.904753942938 259.9776684289777,129.93194321662682 297,127 C 334.0223315710223,124.06805678337318 361.1602370149678,135.17698107643076 386,138 C 410.8397629850322,140.82301892356924 433.38138351115117,135.36013247764998 467,134 C 500.61861648884883,132.63986752235002 545.3142289404274,135.38248901296922 581,143 C 616.6857710595726,150.61751098703078 643.3617007271389,163.10991147047326 676,160 C 708.6382992728611,156.89008852952674 747.2389681510168,138.17786510513778 779,136 C 810.7610318489832,133.82213489486222 835.6824266687936,148.17862810897557 862,154 C 888.3175733312064,159.82137189102443 916.0313251738083,157.10762245896007 952,157 C 987.9686748261917,156.89237754103993 1032.1922726359726,159.39088205518425 1062,152 C 1091.8077273640274,144.60911794481575 1107.1995842823014,127.32884932030302 1139,129 C 1170.8004157176986,130.67115067969698 1219.0093902348217,151.29372066360378 1259,152 C 1298.9906097651783,152.70627933639622 1330.7628547784125,133.4962680252819 1358,127 C 1385.2371452215875,120.50373197471812 1407.9391906515282,126.72120723526865 1438,133 C 1468.0608093484718,139.27879276473135 1505.4803826154746,145.6189030336435 1536,145 C 1566.5196173845254,144.3810969663565 1590.1392788865737,136.8031806301574 1627,136 C 1663.8607211134263,135.1968193698426 1713.96250183823,141.16837444572684 1743,141 C 1772.03749816177,140.83162555427316 1780.0107137605055,134.5233215869352 1806,134 C 1831.9892862394945,133.4766784130648 1875.9946431197473,138.7383392065324 1920,144 C 1920,144 1920,240 1920,240 Z" fill="#99f3ff" opacity="0.36"/><path d="M 0,240 C 0,240 0,192 0,192 C 20.937817116282893,184.37070041722814 41.87563423256579,176.74140083445627 81,175 C 120.12436576743421,173.25859916554373 177.43528018601972,177.405097079403 208,180 C 238.56471981398028,182.594902920597 242.38324502335524,183.63821084793176 272,190 C 301.61675497664476,196.36178915206824 357.03173972055913,208.04205952887 394,209 C 430.96826027944087,209.95794047113 449.4897960944084,200.19355103658827 477,193 C 504.5102039055916,185.80644896341173 541.0090759018074,181.18373632477685 573,184 C 604.9909240981926,186.81626367522315 632.4739002983624,197.07150366430432 667,195 C 701.5260997016376,192.92849633569568 743.0953229047433,178.53024901800583 779,174 C 814.9046770952567,169.46975098199417 845.1448080826644,174.80750026367244 873,179 C 900.8551919173356,183.19249973632756 926.3254447645985,186.23974992730444 958,192 C 989.6745552354015,197.76025007269556 1027.553412858941,206.23350002710978 1062,208 C 1096.446587141059,209.76649997289022 1127.460903799637,204.82624996425648 1154,201 C 1180.539096200363,197.17375003574352 1202.602971942511,194.46150011586428 1230,197 C 1257.397028057489,199.53849988413572 1290.1272084303187,207.32774957228625 1327,203 C 1363.8727915696813,198.67225042771375 1404.8881943362135,182.22750159499066 1443,180 C 1481.1118056637865,177.77249840500934 1516.3200142248265,189.7622440477511 1551,196 C 1585.6799857751735,202.2377559522489 1619.8317487644795,202.72352221400487 1645,205 C 1670.1682512355205,207.27647778599513 1686.3529907172554,211.34366709622947 1719,209 C 1751.6470092827446,206.65633290377053 1800.7562883664982,197.9018094010773 1837,194 C 1873.2437116335018,190.0981905989227 1896.621855816751,191.04909529946136 1920,192 C 1920,192 1920,240 1920,240 Z" fill="#99f3ff" opacity="0.48"/></svg>